HIERARCHY
ROOT Hips
{
	OFFSET -0.179506 -22.333345 2.821913
	CHANNELS 6 Xposition Yposition Zposition Zrotation Yrotation Xrotation 
	JOINT LeftUpLeg
	{
		OFFSET 6.951974 -9.140623 -0.681533
		CHANNELS 3 Zrotation Yrotation Xrotation
		JOINT LeftLeg
		{
			OFFSET 3.427654 -37.519855 -0.449580
			CHANNELS 3 Zrotation Yrotation Xrotation
			JOINT LeftFoot
			{
				OFFSET -1.359570 -39.796059 -4.369333
				CHANNELS 3 Zrotation Yrotation Xrotation
				JOINT LeftToe
				{
					OFFSET 2.635814 -5.579078 11.928840
					CHANNELS 3 Zrotation Yrotation Xrotation
					End Site
					{
						OFFSET 0.000000 0.000000 0.000000
					}
				}
			}
		}
	}
	JOINT RightUpLeg
	{
		OFFSET -6.767048 -9.052170 -0.431982
		CHANNELS 3 Zrotation Yrotation Xrotation
		JOINT RightLeg
		{
			OFFSET -3.829005 -38.256897 -0.885003
			CHANNELS 3 Zrotation Yrotation Xrotation
			JOINT RightFoot
			{
				OFFSET 1.577377 -39.841461 -4.231180
				CHANNELS 3 Zrotation Yrotation Xrotation
				JOINT RightToe
				{
					OFFSET -2.537174 -4.814398 12.334795
					CHANNELS 3 Zrotation Yrotation Xrotation
					End Site
					{
						OFFSET 0.000000 0.000000 0.000000
					}
				}
			}
		}
	}
	JOINT Spine
	{
		OFFSET -0.253288 10.896323 -2.669631
		CHANNELS 3 Zrotation Yrotation Xrotation
		JOINT Spine1
		{
			OFFSET 0.548704 13.518043 0.109247
			CHANNELS 3 Zrotation Yrotation Xrotation
			JOINT Spine2
			{
				OFFSET 0.145701 5.292222 2.542457
				CHANNELS 3 Zrotation Yrotation Xrotation
				JOINT Neck
				{
					OFFSET -0.277840 21.387037 -4.285703
					CHANNELS 3 Zrotation Yrotation Xrotation
					JOINT Head
					{
						OFFSET 0.515184 6.496960 5.134897
						CHANNELS 3 Zrotation Yrotation Xrotation
						End Site
						{
							OFFSET 0.000000 0.000000 0.000000
						}
					}
				}
				JOINT LeftShoulder
				{
					OFFSET 7.884473 12.174932 -3.408961
					CHANNELS 3 Zrotation Yrotation Xrotation
					JOINT LeftArm
					{
						OFFSET 9.097692 3.046888 -0.886815
						CHANNELS 3 Zrotation Yrotation Xrotation
						JOINT LeftForeArm
						{
							OFFSET 25.961220 -1.277207 -2.745643
							CHANNELS 3 Zrotation Yrotation Xrotation
							JOINT LeftHand
							{
								OFFSET 24.923361 0.898606 -0.117091
								CHANNELS 3 Zrotation Yrotation Xrotation
								End Site
								{
									OFFSET 0.000000 0.000000 0.000000
								}
							}
						}
					}
				}
				JOINT RightShoulder
				{
					OFFSET -8.175920 11.883285 -3.861528
					CHANNELS 3 Zrotation Yrotation Xrotation
					JOINT RightArm
					{
						OFFSET -9.601238 3.255117 -0.914307
						CHANNELS 3 Zrotation Yrotation Xrotation
						JOINT RightForeArm
						{
							OFFSET -25.374195 -1.332924 -2.140099
							CHANNELS 3 Zrotation Yrotation Xrotation
							JOINT RightHand
							{
								OFFSET -25.529810 0.777228 -0.555919
								CHANNELS 3 Zrotation Yrotation Xrotation
								End Site
								{
									OFFSET 0.000000 0.000000 0.000000
								}
							}
						}
					}
				}
			}
		}
	}
}
MOTION
Frames: 15
Frame Time: 0.033333
158.182465 107.834885 94.579071 -157.065337 -0.649572 90.461350 1.414297 3.539268 2.095228 2.363782 5.841142 -3.678634 4.484887 18.978397 -13.719291 nan nan nan -2.755829 -4.092789 1.053605 -0.383896 -4.988740 -2.724617 5.692802 -9.996612 11.681307 nan nan nan -1.849923 2.005239 0.939289 4.454247 -2.334152 3.582012 -0.404555 -0.427283 -0.177770 4.038296 -7.818573 -0.538736 1.991898 -10.096495 -4.258434 -14.979562 9.783691 -2.603618 -72.268511 -5.608573 20.868086 6.595630 -23.795227 -11.390362 -6.588227 -17.518638 -21.772386 16.205963 -4.404967 -4.922999 65.569216 2.584500 16.547696 -5.688332 29.561261 -6.219940 3.998161 10.732497 -20.355336 
158.178223 107.813911 94.589119 -157.055472 -0.656841 90.501946 1.392193 3.540330 1.972502 2.373445 5.769942 -3.535074 4.429010 19.022361 -13.821104 nan nan nan -2.721481 -4.019159 0.979120 -0.390522 -4.828657 -2.698433 5.730535 -10.006316 11.447147 nan nan nan -1.720481 1.869379 1.015773 4.329052 -2.386042 3.276851 -0.451036 -0.423015 0.069974 3.891669 -7.785742 -0.386528 2.156184 -9.855244 -4.581359 -15.013717 10.003558 -2.658989 -72.117198 -5.530229 20.688281 6.358177 -23.984152 -11.024106 -6.068026 -17.618155 -21.898942 16.065045 -4.536733 -4.699756 65.739236 3.079224 16.286821 -5.190366 29.373989 -5.883549 3.669726 10.788356 -20.182650 
158.177826 107.804535 94.583565 -157.023260 -0.621258 90.519104 1.445308 3.525166 1.896845 2.356399 5.743814 -3.473624 4.411015 19.018314 -13.835553 nan nan nan -2.691262 -4.022711 0.963176 -0.357417 -4.805053 -2.713400 5.753494 -9.991115 11.435312 nan nan nan -1.714154 1.871212 1.024805 4.345361 -2.376190 3.195274 -0.422859 -0.444242 0.131356 3.903412 -7.781452 -0.362604 2.169991 -9.839697 -4.641533 -14.958846 10.030265 -2.640203 -72.171415 -5.508721 20.714622 6.349720 -24.060827 -10.739865 -5.695260 -17.608043 -21.829686 16.009842 -4.597871 -4.675987 65.785999 3.116990 16.235747 -5.117760 29.421307 -5.773244 3.420352 10.833977 -20.275595 
158.102646 107.713013 94.551682 -156.884592 -1.017764 91.080928 0.520545 1.780333 1.980405 1.942179 3.067652 -5.516105 2.094353 13.213853 -0.086003 nan nan nan -3.235290 -4.370786 0.058709 -0.660393 -6.717412 -2.225577 3.924628 -10.527006 12.659820 nan nan nan -1.892233 1.841518 0.490901 3.901009 -2.268535 3.289687 -0.217530 -0.449801 -0.322768 3.157739 -8.354854 -0.003165 2.830763 -9.627882 -4.304802 -14.751376 9.507232 -2.333511 -72.159841 -5.160859 21.181566 6.500033 -24.275045 -10.642950 -4.654808 -17.560208 -22.848326 16.005007 -4.623899 -4.308105 65.885299 2.932066 16.740883 -5.826915 29.488801 -7.297203 3.380512 10.972365 -19.950850 
158.015213 107.841133 94.550613 -156.681774 -0.531336 90.391743 1.129911 2.060309 3.125309 3.216514 1.831223 -6.042162 -0.569556 11.676527 0.715811 nan nan nan -2.713073 -4.621669 1.178489 -0.750337 -6.701507 -2.592914 3.684425 -10.604422 11.418021 nan nan nan -1.260713 1.728849 0.810658 3.864243 -2.250287 3.580834 -0.114183 -0.439671 0.004833 2.921092 -8.221965 -0.060861 2.999374 -9.951847 -4.763146 -14.648697 9.459136 -2.204845 -72.699310 -5.873628 20.571436 6.240030 -23.356025 -11.177603 -4.790899 -18.833649 -22.427768 15.329137 -5.211695 -4.296210 66.862654 3.771415 15.349764 -5.440814 28.616078 -7.230455 3.939307 12.284786 -18.282781 
158.056931 107.887573 94.547783 -156.731339 0.074179 90.294072 1.941938 2.634381 3.050833 3.256050 2.361396 -5.745535 -1.845228 10.586256 0.582667 nan nan nan -2.206198 -2.583634 2.280576 1.708520 -1.249516 -4.466772 9.880062 -4.633603 4.529288 nan nan nan -0.652426 1.865585 0.870873 3.922360 -2.447280 4.034264 -0.004855 -0.426615 -0.382616 2.322322 -8.128201 0.220320 3.618910 -9.998186 -5.178804 -14.471561 9.557552 -2.006013 -73.318348 -6.291210 20.021538 6.241159 -22.589160 -11.919150 -5.830857 -19.903786 -21.646620 15.074909 -5.381829 -3.535881 67.069207 4.834010 14.966926 -5.488529 28.040766 -7.212969 4.950529 13.716481 -17.255092 
158.058090 107.887405 94.516876 -156.705567 0.055340 90.330808 1.925955 2.618382 2.957046 3.234588 2.318422 -5.685262 -1.914832 10.674545 0.641237 nan nan nan -2.224830 -2.630239 2.198568 1.699025 -1.191538 -4.403102 10.000650 -4.681353 4.535048 nan nan nan -0.574375 1.825260 0.888914 3.858489 -2.488053 3.742616 -0.048277 -0.452462 -0.115117 2.027388 -8.278389 0.405041 3.853076 -9.767906 -5.353131 -14.363985 9.487225 -1.804947 -73.290412 -6.319943 19.781311 6.141693 -22.831791 -11.849171 -6.084410 -19.834754 -21.929605 14.897254 -5.646075 -3.547180 67.276614 5.187465 14.471203 -4.977227 27.838478 -6.883356 5.409749 13.549908 -16.759993 
158.076492 107.894394 94.496033 -156.681682 0.269675 90.324607 2.348703 3.095504 2.828090 3.122163 2.907113 -5.701573 -6.214567 9.524145 2.110246 nan nan nan -1.955094 -2.637516 2.171934 1.606324 -1.640611 -4.326467 10.195056 -4.309663 4.442523 nan nan nan -0.424295 1.775131 0.923031 3.853630 -2.374804 3.693286 0.011701 -0.413612 -0.054644 2.267769 -7.953262 0.297621 3.744153 -10.170742 -5.442226 -14.198160 9.673256 -1.711978 -73.616064 -6.621577 20.267443 6.385011 -22.512025 -11.995216 -6.417458 -20.363428 -22.230858 14.947430 -5.574051 -3.580658 67.303648 5.069483 14.766541 -5.581968 27.807005 -7.911092 5.727656 14.197209 -17.903472 
158.075989 107.881287 94.495667 -156.642141 0.240300 90.332366 2.342845 3.145000 2.794097 3.044650 2.838568 -5.696187 -6.659198 9.552806 2.191363 nan nan nan -2.028041 -2.717409 2.155756 1.600691 -1.582473 -4.281049 10.398956 -4.381217 4.247172 nan nan nan -0.388344 1.769160 0.902382 3.825610 -2.395823 3.562134 -0.011894 -0.431246 0.107590 2.012059 -8.097663 0.451479 3.936084 -9.982735 -5.610206 -14.235303 9.699947 -1.664950 -73.474800 -6.696166 20.139327 6.205650 -22.644914 -11.754286 -6.311515 -20.283271 -22.164907 14.947401 -5.977470 -3.611405 67.267307 5.357216 14.401613 -4.858889 27.770709 -6.782698 5.651799 13.875115 -16.348948 
158.080933 107.884163 94.490547 -156.658868 0.216039 90.296244 2.345445 3.200693 2.792263 3.096982 2.964090 -5.537768 -6.968912 9.549556 2.194269 nan nan nan -2.030325 -2.657112 2.205060 1.536696 -1.619825 -4.316582 10.519516 -4.333933 4.288529 nan nan nan -0.497458 1.833544 0.828390 3.880944 -2.360344 3.712170 0.008524 -0.431141 0.050751 2.103281 -7.982637 0.455649 3.878505 -10.140976 -5.555957 -14.160886 9.485255 -1.605151 -73.515526 -6.673901 20.320386 6.280071 -22.661268 -11.895191 -6.098517 -20.360035 -22.387417 15.023315 -5.479867 -3.538841 67.144652 4.984582 14.790670 -5.375147 27.960168 -7.161360 5.230715 13.964014 -16.917943 
158.087173 107.869080 94.466934 -156.603481 0.149928 90.356290 2.266182 3.085300 2.692542 3.191309 2.937086 -5.433895 -7.184256 9.725229 2.232798 nan nan nan -2.091789 -2.654200 2.155155 1.539654 -1.530869 -4.383660 10.420060 -4.293343 4.609905 nan nan nan -0.351632 1.884455 0.608555 3.820797 -2.358489 3.548580 -0.167890 -0.580820 0.380881 1.700519 -8.118281 0.793244 4.167576 -9.915231 -5.770639 -14.105663 9.337636 -1.444109 -73.377334 -6.763110 20.255212 6.169761 -22.826911 -11.968561 -5.859144 -20.343870 -22.522610 14.848943 -5.942566 -3.598790 67.392594 5.422106 14.282053 -4.699879 27.750373 -6.589251 5.393328 13.742467 -16.004984 
158.098022 107.854744 94.452644 -156.591175 0.132203 90.361659 2.254168 3.040925 2.668141 3.157453 2.877742 -5.426173 -7.102375 9.799122 2.182629 nan nan nan -2.117834 -2.659330 2.142992 1.564741 -1.436191 -4.383836 10.409457 -4.314675 4.719947 nan nan nan -0.235032 1.911129 0.535693 3.761055 -2.334962 3.326941 -0.255894 -0.637029 0.720657 1.475808 -8.241664 0.888754 4.342806 -9.771162 -5.919472 -13.996122 9.238188 -1.344539 -73.344964 -6.862559 20.226821 5.930790 -22.934085 -11.932128 -5.874660 -20.351816 -22.956702 14.622849 -6.186008 -3.622318 67.627215 5.675020 13.964050 -4.254923 27.650538 -6.107653 5.512320 13.567694 -15.602952 
158.095627 107.847588 94.450806 -156.576215 0.132046 90.342815 2.226799 2.971127 2.703171 3.110490 2.781083 -5.489445 -6.843240 9.780280 1.986010 nan nan nan -2.140006 -2.659277 2.151361 1.600672 -1.443472 -4.365734 10.450543 -4.343780 4.693961 nan nan nan -0.264992 1.927433 0.597571 3.786992 -2.335893 3.252259 -0.247938 -0.616216 0.771462 1.540785 -8.332932 0.708318 4.320963 -9.792892 -5.822137 -13.915680 9.243785 -1.355487 -73.486677 -6.943576 20.338232 5.754768 -22.859693 -12.229243 -6.498485 -20.441400 -23.655023 14.635091 -6.150147 -3.661248 67.630367 5.567184 14.085184 -4.467034 27.727975 -6.217939 5.842057 13.466084 -15.813446 
158.090622 107.841141 94.457062 -156.613143 0.162932 90.365863 2.226681 2.929963 2.699454 3.081412 2.809383 -5.521365 -6.669448 9.672816 1.947826 nan nan nan -2.103902 -2.560582 2.101013 1.588335 -1.544928 -4.329310 10.503820 -4.318819 4.695620 nan nan nan -0.463442 1.879924 0.806662 3.884524 -2.333820 3.276099 -0.116248 -0.501645 0.500028 1.968460 -8.130234 0.312777 4.080418 -9.965798 -5.589661 -13.720582 9.429846 -1.408604 -73.860628 -6.811744 20.593635 5.791481 -22.895502 -12.354998 -6.803833 -20.670950 -24.489932 14.746051 -5.699806 -3.509268 67.463858 5.171540 14.733252 -5.295443 28.006159 -6.850884 5.668970 13.661169 -16.988119 
158.096725 107.847290 94.466606 -156.615309 0.150223 90.375902 2.211324 2.943333 2.669115 3.092422 2.682090 -5.481333 -6.713357 9.700580 1.930562 nan nan nan -2.108145 -2.558623 2.079517 1.591625 -1.503383 -4.324468 10.477695 -4.339440 4.669623 nan nan nan -0.463926 1.779897 0.881056 3.865346 -2.387232 3.190326 -0.083110 -0.469179 0.465495 1.852986 -8.162910 0.369915 4.057147 -9.762899 -5.615894 -13.872045 9.722157 -1.442730 -73.729755 -6.834709 20.414421 5.679982 -22.894823 -12.071610 -6.781101 -20.528013 -24.303171 14.856269 -6.025719 -3.498421 67.350972 5.474099 14.543827 -4.856406 27.885575 -6.492611 5.628318 13.600279 -16.504802 
